<mxfile host="app.diagrams.net" modified="2024-05-03T22:27:41.378Z" agent="Mozilla/5.0 (Windows NT 10.0; Win64; x64) AppleWebKit/537.36 (KHTML, like Gecko) Chrome/124.0.0.0 Safari/537.36 Edg/124.0.0.0" etag="66w3R4lEnGtBTRBiaPb9" version="24.3.1" type="github">
  <diagram name="Page-1" id="58cdce13-f638-feb5-8d6f-7d28b1aa9fa0">
    <mxGraphModel dx="1386" dy="1643" grid="1" gridSize="10" guides="1" tooltips="1" connect="1" arrows="1" fold="1" page="1" pageScale="1" pageWidth="1100" pageHeight="850" background="none" math="0" shadow="0">
      <root>
        <mxCell id="0" />
        <mxCell id="1" parent="0" />
        <mxCell id="HRhPoA2Pbg03ag5OgHdk-22" style="edgeStyle=orthogonalEdgeStyle;rounded=0;orthogonalLoop=1;jettySize=auto;html=1;entryX=0.5;entryY=0;entryDx=0;entryDy=0;exitX=0;exitY=0.5;exitDx=0;exitDy=0;" parent="1" source="HRhPoA2Pbg03ag5OgHdk-37" target="HRhPoA2Pbg03ag5OgHdk-24" edge="1">
          <mxGeometry relative="1" as="geometry">
            <mxPoint x="550" y="160" as="targetPoint" />
          </mxGeometry>
        </mxCell>
        <mxCell id="HRhPoA2Pbg03ag5OgHdk-26" style="edgeStyle=orthogonalEdgeStyle;rounded=0;orthogonalLoop=1;jettySize=auto;html=1;entryX=0.5;entryY=0;entryDx=0;entryDy=0;exitX=0;exitY=0.5;exitDx=0;exitDy=0;" parent="1" source="HRhPoA2Pbg03ag5OgHdk-37" target="HRhPoA2Pbg03ag5OgHdk-25" edge="1">
          <mxGeometry relative="1" as="geometry" />
        </mxCell>
        <mxCell id="HRhPoA2Pbg03ag5OgHdk-27" style="edgeStyle=orthogonalEdgeStyle;rounded=0;orthogonalLoop=1;jettySize=auto;html=1;entryX=0.5;entryY=0;entryDx=0;entryDy=0;exitX=0.5;exitY=1;exitDx=0;exitDy=0;" parent="1" source="HRhPoA2Pbg03ag5OgHdk-37" target="HRhPoA2Pbg03ag5OgHdk-28" edge="1">
          <mxGeometry relative="1" as="geometry">
            <mxPoint x="460" y="120" as="targetPoint" />
            <mxPoint x="390" y="130" as="sourcePoint" />
            <Array as="points">
              <mxPoint x="380" y="90" />
              <mxPoint x="380" y="90" />
            </Array>
          </mxGeometry>
        </mxCell>
        <mxCell id="HRhPoA2Pbg03ag5OgHdk-32" style="edgeStyle=orthogonalEdgeStyle;rounded=0;orthogonalLoop=1;jettySize=auto;html=1;entryX=0.5;entryY=0;entryDx=0;entryDy=0;exitX=0;exitY=0.5;exitDx=0;exitDy=0;" parent="1" source="HRhPoA2Pbg03ag5OgHdk-37" target="HRhPoA2Pbg03ag5OgHdk-31" edge="1">
          <mxGeometry relative="1" as="geometry">
            <Array as="points">
              <mxPoint x="300" y="40" />
            </Array>
          </mxGeometry>
        </mxCell>
        <mxCell id="HRhPoA2Pbg03ag5OgHdk-36" style="edgeStyle=orthogonalEdgeStyle;rounded=0;orthogonalLoop=1;jettySize=auto;html=1;" parent="1" source="HRhPoA2Pbg03ag5OgHdk-21" target="HRhPoA2Pbg03ag5OgHdk-35" edge="1">
          <mxGeometry relative="1" as="geometry" />
        </mxCell>
        <mxCell id="HRhPoA2Pbg03ag5OgHdk-38" style="edgeStyle=orthogonalEdgeStyle;rounded=0;orthogonalLoop=1;jettySize=auto;html=1;entryX=1;entryY=0.5;entryDx=0;entryDy=0;" parent="1" source="HRhPoA2Pbg03ag5OgHdk-21" target="HRhPoA2Pbg03ag5OgHdk-37" edge="1">
          <mxGeometry relative="1" as="geometry" />
        </mxCell>
        <mxCell id="HRhPoA2Pbg03ag5OgHdk-21" value="&lt;b&gt;&lt;font style=&quot;font-size: 20px;&quot;&gt;/start&lt;/font&gt;&lt;/b&gt;" style="shape=ext;double=1;rounded=1;whiteSpace=wrap;html=1;" parent="1" vertex="1">
          <mxGeometry x="480" width="120" height="80" as="geometry" />
        </mxCell>
        <mxCell id="HRhPoA2Pbg03ag5OgHdk-24" value="/help" style="shape=ext;double=1;rounded=1;whiteSpace=wrap;html=1;labelBackgroundColor=default;fillColor=#d5e8d4;strokeColor=#82b366;" parent="1" vertex="1">
          <mxGeometry y="200" width="120" height="80" as="geometry" />
        </mxCell>
        <mxCell id="HRhPoA2Pbg03ag5OgHdk-25" value="/about" style="shape=ext;double=1;rounded=1;whiteSpace=wrap;html=1;labelBackgroundColor=default;fillColor=#d5e8d4;strokeColor=#82b366;" parent="1" vertex="1">
          <mxGeometry x="160" y="200" width="120" height="80" as="geometry" />
        </mxCell>
        <mxCell id="HRhPoA2Pbg03ag5OgHdk-28" value="/history*" style="shape=ext;double=1;rounded=1;whiteSpace=wrap;html=1;labelBackgroundColor=default;fillColor=#d5e8d4;strokeColor=#82b366;" parent="1" vertex="1">
          <mxGeometry x="320" y="200" width="120" height="80" as="geometry" />
        </mxCell>
        <mxCell id="HRhPoA2Pbg03ag5OgHdk-29" value="/config*" style="shape=ext;double=1;rounded=1;whiteSpace=wrap;html=1;labelBackgroundColor=default;fillColor=#ffe6cc;strokeColor=#d79b00;" parent="1" vertex="1">
          <mxGeometry x="300" y="-260" width="160" height="120" as="geometry" />
        </mxCell>
        <mxCell id="HRhPoA2Pbg03ag5OgHdk-31" value="/advice" style="shape=ext;double=1;rounded=1;whiteSpace=wrap;html=1;labelBackgroundColor=default;fillColor=#d5e8d4;strokeColor=#82b366;" parent="1" vertex="1">
          <mxGeometry x="240" y="320" width="120" height="80" as="geometry" />
        </mxCell>
        <mxCell id="HRhPoA2Pbg03ag5OgHdk-40" style="edgeStyle=orthogonalEdgeStyle;rounded=0;orthogonalLoop=1;jettySize=auto;html=1;" parent="1" source="HRhPoA2Pbg03ag5OgHdk-35" target="HRhPoA2Pbg03ag5OgHdk-39" edge="1">
          <mxGeometry relative="1" as="geometry">
            <Array as="points">
              <mxPoint x="730" y="160" />
              <mxPoint x="600" y="160" />
            </Array>
          </mxGeometry>
        </mxCell>
        <mxCell id="HRhPoA2Pbg03ag5OgHdk-42" style="edgeStyle=orthogonalEdgeStyle;rounded=0;orthogonalLoop=1;jettySize=auto;html=1;exitX=1;exitY=0.5;exitDx=0;exitDy=0;" parent="1" source="HRhPoA2Pbg03ag5OgHdk-35" target="HRhPoA2Pbg03ag5OgHdk-41" edge="1">
          <mxGeometry relative="1" as="geometry" />
        </mxCell>
        <mxCell id="HRhPoA2Pbg03ag5OgHdk-44" style="edgeStyle=orthogonalEdgeStyle;rounded=0;orthogonalLoop=1;jettySize=auto;html=1;entryX=0.5;entryY=0;entryDx=0;entryDy=0;exitX=0.658;exitY=0.983;exitDx=0;exitDy=0;exitPerimeter=0;" parent="1" source="HRhPoA2Pbg03ag5OgHdk-35" target="HRhPoA2Pbg03ag5OgHdk-43" edge="1">
          <mxGeometry relative="1" as="geometry">
            <mxPoint x="770" y="90" as="sourcePoint" />
            <Array as="points">
              <mxPoint x="752" y="69" />
              <mxPoint x="752" y="70" />
              <mxPoint x="730" y="70" />
            </Array>
          </mxGeometry>
        </mxCell>
        <mxCell id="HRhPoA2Pbg03ag5OgHdk-46" style="edgeStyle=orthogonalEdgeStyle;rounded=0;orthogonalLoop=1;jettySize=auto;html=1;exitX=1;exitY=0.5;exitDx=0;exitDy=0;entryX=0.5;entryY=0;entryDx=0;entryDy=0;" parent="1" source="HRhPoA2Pbg03ag5OgHdk-35" target="HRhPoA2Pbg03ag5OgHdk-45" edge="1">
          <mxGeometry relative="1" as="geometry">
            <Array as="points">
              <mxPoint x="830" y="40" />
            </Array>
          </mxGeometry>
        </mxCell>
        <mxCell id="HRhPoA2Pbg03ag5OgHdk-49" style="edgeStyle=orthogonalEdgeStyle;rounded=0;orthogonalLoop=1;jettySize=auto;html=1;exitX=1;exitY=0.5;exitDx=0;exitDy=0;entryX=0.5;entryY=0;entryDx=0;entryDy=0;" parent="1" source="HRhPoA2Pbg03ag5OgHdk-35" target="HRhPoA2Pbg03ag5OgHdk-48" edge="1">
          <mxGeometry relative="1" as="geometry" />
        </mxCell>
        <mxCell id="FmF07j_0jMD2Qk6rRM8b-7" style="edgeStyle=orthogonalEdgeStyle;rounded=0;orthogonalLoop=1;jettySize=auto;html=1;entryX=0.5;entryY=0;entryDx=0;entryDy=0;" edge="1" parent="1" source="HRhPoA2Pbg03ag5OgHdk-35" target="FmF07j_0jMD2Qk6rRM8b-6">
          <mxGeometry relative="1" as="geometry">
            <Array as="points">
              <mxPoint x="730" y="160" />
              <mxPoint x="475" y="160" />
            </Array>
          </mxGeometry>
        </mxCell>
        <mxCell id="HRhPoA2Pbg03ag5OgHdk-35" value="&lt;b&gt;&lt;font face=&quot;Comic Sans MS&quot; style=&quot;font-size: 16px;&quot;&gt;&lt;i&gt;REST API COMMANDS&lt;/i&gt;&lt;/font&gt;&lt;/b&gt;" style="rounded=1;whiteSpace=wrap;html=1;strokeWidth=2;fillWeight=4;hachureGap=8;hachureAngle=45;fillColor=#1ba1e2;sketch=1;" parent="1" vertex="1">
          <mxGeometry x="670" y="10" width="120" height="60" as="geometry" />
        </mxCell>
        <mxCell id="FmF07j_0jMD2Qk6rRM8b-5" style="edgeStyle=orthogonalEdgeStyle;rounded=0;orthogonalLoop=1;jettySize=auto;html=1;entryX=1;entryY=0.5;entryDx=0;entryDy=0;" edge="1" parent="1" source="HRhPoA2Pbg03ag5OgHdk-37" target="ow_TPKmhT6C1VxMEzMr0-1">
          <mxGeometry relative="1" as="geometry">
            <Array as="points">
              <mxPoint x="380" y="-70" />
            </Array>
          </mxGeometry>
        </mxCell>
        <mxCell id="FmF07j_0jMD2Qk6rRM8b-11" style="edgeStyle=orthogonalEdgeStyle;rounded=0;orthogonalLoop=1;jettySize=auto;html=1;entryX=0.5;entryY=1;entryDx=0;entryDy=0;" edge="1" parent="1" source="HRhPoA2Pbg03ag5OgHdk-37" target="HRhPoA2Pbg03ag5OgHdk-29">
          <mxGeometry relative="1" as="geometry" />
        </mxCell>
        <mxCell id="HRhPoA2Pbg03ag5OgHdk-37" value="&lt;b&gt;&lt;i&gt;&lt;font style=&quot;font-size: 14px;&quot; face=&quot;Comic Sans MS&quot;&gt;NON REST&lt;/font&gt;&lt;/i&gt;&lt;/b&gt;" style="rhombus;whiteSpace=wrap;html=1;strokeWidth=2;fillWeight=-1;hachureGap=8;fillStyle=cross-hatch;fillColor=#006600;sketch=1;rounded=1;shadow=0;dashed=1;" parent="1" vertex="1">
          <mxGeometry x="320" y="10" width="120" height="60" as="geometry" />
        </mxCell>
        <mxCell id="FmF07j_0jMD2Qk6rRM8b-3" style="edgeStyle=orthogonalEdgeStyle;rounded=0;orthogonalLoop=1;jettySize=auto;html=1;entryX=0.5;entryY=0;entryDx=0;entryDy=0;" edge="1" parent="1" source="HRhPoA2Pbg03ag5OgHdk-39" target="HRhPoA2Pbg03ag5OgHdk-62">
          <mxGeometry relative="1" as="geometry" />
        </mxCell>
        <mxCell id="HRhPoA2Pbg03ag5OgHdk-39" value="/newuser" style="ellipse;shape=doubleEllipse;whiteSpace=wrap;html=1;fillColor=#dae8fc;strokeColor=#6c8ebf;fontSize=29;" parent="1" vertex="1">
          <mxGeometry x="520" y="265" width="160" height="155" as="geometry" />
        </mxCell>
        <mxCell id="HRhPoA2Pbg03ag5OgHdk-66" style="edgeStyle=orthogonalEdgeStyle;rounded=0;orthogonalLoop=1;jettySize=auto;html=1;entryX=0.5;entryY=0;entryDx=0;entryDy=0;" parent="1" source="HRhPoA2Pbg03ag5OgHdk-41" target="HRhPoA2Pbg03ag5OgHdk-58" edge="1">
          <mxGeometry relative="1" as="geometry" />
        </mxCell>
        <mxCell id="HRhPoA2Pbg03ag5OgHdk-41" value="/getme" style="ellipse;shape=doubleEllipse;whiteSpace=wrap;html=1;fillColor=#dae8fc;strokeColor=#6c8ebf;" parent="1" vertex="1">
          <mxGeometry x="890" y="120" width="100" height="60" as="geometry" />
        </mxCell>
        <mxCell id="FmF07j_0jMD2Qk6rRM8b-4" style="edgeStyle=orthogonalEdgeStyle;rounded=0;orthogonalLoop=1;jettySize=auto;html=1;entryX=0.5;entryY=0;entryDx=0;entryDy=0;" edge="1" parent="1" source="HRhPoA2Pbg03ag5OgHdk-43" target="HRhPoA2Pbg03ag5OgHdk-62">
          <mxGeometry relative="1" as="geometry">
            <Array as="points">
              <mxPoint x="730" y="520" />
              <mxPoint x="600" y="520" />
            </Array>
          </mxGeometry>
        </mxCell>
        <mxCell id="HRhPoA2Pbg03ag5OgHdk-43" value="/changeme" style="ellipse;shape=doubleEllipse;whiteSpace=wrap;html=1;fillColor=#dae8fc;strokeColor=#6c8ebf;" parent="1" vertex="1">
          <mxGeometry x="675" y="180" width="110" height="110" as="geometry" />
        </mxCell>
        <mxCell id="HRhPoA2Pbg03ag5OgHdk-64" style="edgeStyle=orthogonalEdgeStyle;rounded=0;orthogonalLoop=1;jettySize=auto;html=1;entryX=0.5;entryY=0;entryDx=0;entryDy=0;exitX=0.5;exitY=1;exitDx=0;exitDy=0;" parent="1" source="HRhPoA2Pbg03ag5OgHdk-45" target="HRhPoA2Pbg03ag5OgHdk-58" edge="1">
          <mxGeometry relative="1" as="geometry">
            <Array as="points">
              <mxPoint x="830" y="370" />
              <mxPoint x="940" y="370" />
            </Array>
          </mxGeometry>
        </mxCell>
        <mxCell id="HRhPoA2Pbg03ag5OgHdk-45" value="/deleteme" style="ellipse;shape=doubleEllipse;whiteSpace=wrap;html=1;fillColor=#dae8fc;strokeColor=#6c8ebf;" parent="1" vertex="1">
          <mxGeometry x="780" y="120" width="100" height="60" as="geometry" />
        </mxCell>
        <mxCell id="HRhPoA2Pbg03ag5OgHdk-67" style="edgeStyle=orthogonalEdgeStyle;rounded=0;orthogonalLoop=1;jettySize=auto;html=1;exitX=0.5;exitY=1;exitDx=0;exitDy=0;entryX=0.5;entryY=0;entryDx=0;entryDy=0;" parent="1" source="HRhPoA2Pbg03ag5OgHdk-48" edge="1" target="HRhPoA2Pbg03ag5OgHdk-58">
          <mxGeometry relative="1" as="geometry">
            <mxPoint x="1000" y="560" as="targetPoint" />
            <Array as="points">
              <mxPoint x="1050" y="370" />
              <mxPoint x="940" y="370" />
            </Array>
          </mxGeometry>
        </mxCell>
        <mxCell id="HRhPoA2Pbg03ag5OgHdk-48" value="/finduser" style="ellipse;shape=doubleEllipse;whiteSpace=wrap;html=1;fillColor=#dae8fc;strokeColor=#6c8ebf;" parent="1" vertex="1">
          <mxGeometry x="1000" y="120" width="100" height="60" as="geometry" />
        </mxCell>
        <mxCell id="HRhPoA2Pbg03ag5OgHdk-58" value="FIREBASE DB" style="shape=datastore;whiteSpace=wrap;html=1;direction=east;" parent="1" vertex="1">
          <mxGeometry x="860" y="560" width="160" height="160" as="geometry" />
        </mxCell>
        <mxCell id="FmF07j_0jMD2Qk6rRM8b-2" style="edgeStyle=orthogonalEdgeStyle;rounded=0;orthogonalLoop=1;jettySize=auto;html=1;" edge="1" parent="1" source="HRhPoA2Pbg03ag5OgHdk-62" target="HRhPoA2Pbg03ag5OgHdk-58">
          <mxGeometry relative="1" as="geometry" />
        </mxCell>
        <mxCell id="HRhPoA2Pbg03ag5OgHdk-62" value="&lt;font style=&quot;font-size: 12px;&quot;&gt;Generate from inputed parameters&lt;/font&gt;" style="ellipse;shape=doubleEllipse;whiteSpace=wrap;html=1;" parent="1" vertex="1">
          <mxGeometry x="535" y="600" width="130" height="80" as="geometry" />
        </mxCell>
        <mxCell id="ow_TPKmhT6C1VxMEzMr0-1" value="/findout" style="shape=hexagon;perimeter=hexagonPerimeter2;whiteSpace=wrap;html=1;fixedSize=1;fillColor=#ffe6cc;strokeColor=#d79b00;" parent="1" vertex="1">
          <mxGeometry x="160" y="-110" width="120" height="80" as="geometry" />
        </mxCell>
        <mxCell id="FmF07j_0jMD2Qk6rRM8b-9" style="edgeStyle=orthogonalEdgeStyle;rounded=0;orthogonalLoop=1;jettySize=auto;html=1;entryX=0.5;entryY=0;entryDx=0;entryDy=0;" edge="1" parent="1" source="FmF07j_0jMD2Qk6rRM8b-6" target="HRhPoA2Pbg03ag5OgHdk-62">
          <mxGeometry relative="1" as="geometry">
            <Array as="points">
              <mxPoint x="475" y="520" />
              <mxPoint x="600" y="520" />
            </Array>
          </mxGeometry>
        </mxCell>
        <mxCell id="FmF07j_0jMD2Qk6rRM8b-6" value="/addme" style="ellipse;shape=doubleEllipse;whiteSpace=wrap;html=1;fillColor=#dae8fc;strokeColor=#6c8ebf;" vertex="1" parent="1">
          <mxGeometry x="420" y="400" width="110" height="110" as="geometry" />
        </mxCell>
      </root>
    </mxGraphModel>
  </diagram>
</mxfile>
